<svg width="1593" height="685" viewBox="0 0 1593 685" fill="none" xmlns="http://www.w3.org/2000/svg">
<g filter="url(#filter0_i_0_1)">
<path d="M201.724 453.541L100 365.458L1.0718 130.359C0.731794 129.551 0.957606 128.616 1.62884 128.052L100 45.4178C178.272 25.6406 232.116 15.189 412.091 1.91237C555.705 -8.08312 623.756 23.2872 756.536 45.4178C1061.06 82.1121 1080.08 97.9243 1298.09 79.422C1392.56 66.1425 1458.37 45.4178 1540 45.4178L1592.1 207.25C1592.36 208.062 1592.35 208.936 1592.08 209.745L1540 365.458L1458.37 540.98L1425.3 436.256C1422.52 427.453 1411.25 424.955 1405.01 431.756L1361.72 478.93C1357.53 483.49 1350.57 484.119 1345.63 480.384L1283.66 433.466L1252.8 566.483L1232.08 492.957C1231.03 489.204 1228.21 486.199 1224.54 484.899L1147.19 457.524C1144.36 456.524 1141.26 456.618 1138.5 457.787L1075.52 484.473C1071.84 486.035 1067.61 485.655 1064.26 483.46L987.992 433.466V678.606C987.992 684.992 979.342 686.958 976.581 681.2L883.464 486.973L864.051 540.98L843.546 464.848C842.135 459.609 837.384 455.969 831.959 455.969H827.696C822.391 455.969 817.715 459.452 816.198 464.535L793.37 540.98L756.536 625.99L705.33 534.183C700.212 525.006 686.605 526.374 683.416 536.386L663.954 597.487L613.184 455.969L563.668 508.64C562.836 509.526 562.143 510.532 561.613 511.625L506.167 625.99L491.378 672.046C490.091 676.055 484.282 675.611 483.62 671.453L459.496 520.087C458.568 514.262 453.544 509.976 447.646 509.976H421.549L407.114 566.483L373.267 625.99L336.931 597.487V545.934C336.931 542.761 335.674 539.717 333.435 537.468L290.885 494.72C286.514 490.33 279.52 489.987 274.742 493.931L255.299 509.976L241.779 524.75C235.367 531.757 223.742 528.891 221.322 519.707L205.473 459.555C204.858 457.219 203.551 455.123 201.724 453.541Z" fill="url(#paint0_linear_0_1)" style="mix-blend-mode:darken"/>
</g>
<defs>
<filter id="filter0_i_0_1" x="0.915161" y="0" width="1603.38" height="692.615" filterUnits="userSpaceOnUse" color-interpolation-filters="sRGB">
<feFlood flood-opacity="0" result="BackgroundImageFix"/>
<feBlend mode="normal" in="SourceGraphic" in2="BackgroundImageFix" result="shape"/>
<feColorMatrix in="SourceAlpha" type="matrix" values="0 0 0 0 0 0 0 0 0 0 0 0 0 0 0 0 0 0 127 0" result="hardAlpha"/>
<feOffset dx="17" dy="8"/>
<feGaussianBlur stdDeviation="6"/>
<feComposite in2="hardAlpha" operator="arithmetic" k2="-1" k3="1"/>
<feColorMatrix type="matrix" values="0 0 0 0 0.0313726 0 0 0 0 0.0235294 0 0 0 0 0.00392157 0 0 0 0.5 0"/>
<feBlend mode="multiply" in2="shape" result="effect1_innerShadow_0_1"/>
</filter>
<linearGradient id="paint0_linear_0_1" x1="820" y1="0" x2="820" y2="705" gradientUnits="userSpaceOnUse">
<stop stop-color="#0C0C0C"/>
<stop offset="1" stop-color="#080601"/>
</linearGradient>
</defs>
</svg>
