<svg width="20" height="20" viewBox="0 0 20 20" fill="none" xmlns="http://www.w3.org/2000/svg">
<path d="M12.1667 5.5H13.5V19.5H3.5V5.5H9.41667H12.1667Z" stroke="white"/>
<rect x="4.83331" y="6.875" width="1.83333" height="1.875" fill="white"/>
<rect x="7.58331" y="6.875" width="1.83333" height="1.875" fill="white"/>
<rect x="10.3333" y="6.875" width="1.83333" height="1.875" fill="white"/>
<rect x="4.83331" y="9.6875" width="1.83333" height="1.875" fill="white"/>
<rect x="7.58331" y="9.6875" width="1.83333" height="1.875" fill="white"/>
<rect x="10.3333" y="9.6875" width="1.83333" height="1.875" fill="white"/>
<rect x="4.83331" y="12.5" width="1.83333" height="1.875" fill="white"/>
<rect x="7.58331" y="12.5" width="1.83333" height="1.875" fill="white"/>
<rect x="10.3333" y="12.5" width="1.83333" height="1.875" fill="white"/>
<rect x="4.83331" y="15.5" width="1.83333" height="1.875" fill="white"/>
<rect x="7.58331" y="15.5" width="1.83333" height="1.875" fill="white"/>
<rect x="10.3333" y="15.5" width="1.83333" height="1.875" fill="white"/>
<path d="M18.8333 8.5H19.5V19.5H13.5V8.5H17.0833H18.8333Z" stroke="white"/>
<rect x="14.75" y="9.5" width="1.5" height="1.5" fill="white"/>
<rect x="17" y="9.5" width="1.5" height="1.5" fill="white"/>
<rect x="14.75" y="11.75" width="1.5" height="1.5" fill="white"/>
<rect x="17" y="11.75" width="1.5" height="1.5" fill="white"/>
<rect x="14.75" y="14" width="1.5" height="1.5" fill="white"/>
<rect x="17" y="14" width="1.5" height="1.5" fill="white"/>
<path d="M3.33333 8.5H3.5V19.5H0.5V8.5H2.33333H3.33333Z" stroke="white"/>
<rect x="1.75" y="9.5" width="1.5" height="1.5" fill="white"/>
<rect x="1.75" y="11.75" width="1.5" height="1.5" fill="white"/>
<rect x="1.75" y="14" width="1.5" height="1.5" fill="white"/>
</svg>
