<svg width="20" height="20" viewBox="0 0 20 20" fill="none" xmlns="http://www.w3.org/2000/svg">
<path d="M4.55 18.2351C4.45624 18.1237 4.34756 17.9927 4.22729 17.8445C3.80717 17.3268 3.24783 16.6026 2.68948 15.775C2.13017 14.9461 1.57803 14.0225 1.16724 13.1055C0.753511 12.182 0.5 11.302 0.5 10.55C0.5 8.31064 2.31064 6.5 4.55 6.5C6.78936 6.5 8.6 8.31064 8.6 10.55C8.6 11.302 8.34649 12.182 7.93276 13.1055C7.52197 14.0225 6.96983 14.9461 6.41052 15.775C5.85217 16.6026 5.29283 17.3268 4.87271 17.8445C4.75244 17.9927 4.64376 18.1237 4.55 18.2351Z" stroke="white"/>
<circle cx="4.54998" cy="10.55" r="1.95" fill="white"/>
<path d="M9 4L4 5.21622V6.5M9 4L14 5.21622M9 4V17.7838M14 5.21622L19 4V17.7838L14 19M14 5.21622V19M14 19L9 17.7838M9 17.7838L4 19V17.7838" stroke="white"/>
</svg>
