<svg width="20" height="20" viewBox="0 0 20 20" fill="none" xmlns="http://www.w3.org/2000/svg">
<path d="M10 19.2395C9.81789 19.0266 9.57675 18.7397 9.29448 18.3919C8.64467 17.5913 7.77908 16.4706 6.91448 15.1891C6.04892 13.9062 5.19053 12.4713 4.55005 11.0417C3.90664 9.60548 3.5 8.21133 3.5 7C3.5 3.40614 6.40614 0.5 10 0.5C13.5939 0.5 16.5 3.40614 16.5 7C16.5 8.21133 16.0934 9.60548 15.4499 11.0417C14.8095 12.4713 13.9511 13.9062 13.0855 15.1891C12.2209 16.4706 11.3553 17.5913 10.7055 18.3919C10.4232 18.7397 10.1821 19.0266 10 19.2395Z" stroke="white"/>
<circle cx="10" cy="7" r="3" fill="white"/>
</svg>
