<svg width="15" height="15" viewBox="0 0 15 15" fill="none" xmlns="http://www.w3.org/2000/svg">
<path d="M7.5 0.5C3.35786 0.5 0 3.69797 0 7.64286C0 8.43363 0.134927 9.19439 0.384051 9.9054C0.513304 10.2743 0.874633 10.5 1.26551 10.5H13.7345C14.1254 10.5 14.4867 10.2743 14.6159 9.9054C14.8651 9.19439 15 8.43363 15 7.64286C15 3.69797 11.6421 0.5 7.5 0.5Z" fill="#FFBABA"/>
<path d="M1 12C0.723858 12 0.5 12.2239 0.5 12.5C0.5 12.7761 0.723858 13 1 13L1 12ZM11 13L11.5 13L11.5 12L11 12L11 13ZM1 13L11 13L11 12L1 12L1 13Z" fill="#FFBABA"/>
<path d="M8 14H7.5V15H8V14ZM14 15C14.2761 15 14.5 14.7761 14.5 14.5C14.5 14.2239 14.2761 14 14 14V15ZM8 15H14V14H8V15Z" fill="#FFBABA"/>
</svg>
