<svg width="15" height="15" viewBox="0 0 15 15" fill="none" xmlns="http://www.w3.org/2000/svg">
<path d="M7.5 0.5C3.35786 0.5 0 3.69797 0 7.64286C0 8.43363 0.134927 9.19439 0.384051 9.9054C0.513304 10.2743 0.874633 10.5 1.26551 10.5H13.7345C14.1254 10.5 14.4867 10.2743 14.6159 9.9054C14.8651 9.19439 15 8.43363 15 7.64286C15 3.69797 11.6421 0.5 7.5 0.5Z" fill="#FFFFCC"/>
<path d="M4 12L3.5 12L3.5 13L4 13L4 12ZM14 13C14.2761 13 14.5 12.7761 14.5 12.5C14.5 12.2239 14.2761 12 14 12L14 13ZM4 13L14 13L14 12L4 12L4 13Z" fill="#FFFFCC"/>
<path d="M1 14C0.723858 14 0.5 14.2239 0.5 14.5C0.5 14.7761 0.723858 15 1 15V14ZM7 15H7.5V14H7V15ZM1 15H7V14H1V15Z" fill="#FFFFCC"/>
</svg>
