<svg width="23" height="23" viewBox="0 0 23 23" fill="none" xmlns="http://www.w3.org/2000/svg">
<g clip-path="url(#clip0_68_2)">
<path d="M18.0536 13.7613L18.1415 14.1976L18.5851 14.1608C19.363 14.0962 20.3407 14.5372 21.1511 15.3512C21.9527 16.1564 22.5 17.2393 22.5 18.3125C22.5 20.6136 20.5876 22.5 18.2083 22.5H5.75C2.84364 22.5 0.5 20.1917 0.5 17.375C0.5 16.0738 0.995349 15.1459 1.79681 14.4957C2.61679 13.8306 3.79337 13.4289 5.1788 13.2848L5.44341 13.2573L5.56843 13.0225C6.68115 10.9325 8.91868 9.5 11.5 9.5C13.1821 9.5 14.6819 9.84515 15.8245 10.5448C16.9542 11.2365 17.7563 12.2859 18.0536 13.7613Z" stroke="white"/>
<path d="M15.5 8C15.5 12.1421 12.1421 15.5 8 15.5C6.68078 15.5 5.44252 15.1598 4.36659 14.5628C2.0596 13.2826 0.5 10.8231 0.5 8C0.5 3.85786 3.85786 0.5 8 0.5C12.1421 0.5 15.5 3.85786 15.5 8Z" stroke="white"/>
</g>
<defs>
<clipPath id="clip0_68_2">
<rect width="23" height="23" fill="white"/>
</clipPath>
</defs>
</svg>
