<svg width="2229" height="299" viewBox="0 0 2229 299" fill="none" xmlns="http://www.w3.org/2000/svg">
<rect x="10.8198" y="50.6945" width="238" height="238" transform="rotate(-4.91356 10.8198 50.6945)" stroke="white" stroke-width="20" style="mix-blend-mode:exclusion"/>
<path d="M92.875 130.125C100.125 124.542 108.25 120.458 117.25 117.875C126.333 115.292 134.25 114 141 114C147.75 114 152.958 114.167 156.625 114.5V59H181.5V245H159.125L158.125 230.125C153.042 236.875 145.333 241.875 135 245.125C131 246.375 126.917 247 122.75 247C118.667 247 114.625 246.583 110.625 245.75C106.625 244.917 102.625 243.542 98.625 241.625C94.7083 239.625 90.9583 237.042 87.375 233.875C83.7917 230.625 80.5833 226.667 77.75 222C71.75 211.75 68.75 199.625 68.75 185.625C68.75 171.625 70.9583 160.292 75.375 151.625C79.875 142.875 85.7083 135.708 92.875 130.125ZM108 145C103.75 149 100.458 154.167 98.125 160.5C95.875 166.75 94.75 174.375 94.75 183.375C94.75 192.292 95.8333 199.667 98 205.5C100.167 211.25 102.875 215.75 106.125 219C111.875 224.833 118.792 227.75 126.875 227.75C137.292 227.75 145.917 223.917 152.75 216.25C154.5 214.333 155.75 212.625 156.5 211.125V134.25L154 134C150.167 133.5 145.583 133.25 140.25 133.25C135 133.25 129.375 134.208 123.375 136.125C117.375 137.958 112.25 140.917 108 145ZM267.515 247C220.348 247 196.765 223.958 196.765 177.875C196.765 158.042 203.307 142.167 216.39 130.25C228.14 119.417 241.557 114 256.64 114C273.057 114 285.89 119.5 295.14 130.5C303.723 140.75 308.015 154.458 308.015 171.625V181.375H222.765C222.765 204.958 232.39 219.375 251.64 224.625C256.223 225.875 263.265 226.5 272.765 226.5C282.348 226.5 291.723 225.208 300.89 222.625V243.75C291.723 245.917 280.598 247 267.515 247ZM283.015 163C283.015 155 280.807 148.25 276.39 142.75C271.223 136.417 264.098 133.25 255.015 133.25C245.432 133.25 237.64 136.292 231.64 142.375C226.14 148.042 223.39 154.917 223.39 163H283.015ZM351.78 247C341.363 247 330.822 246.25 320.155 244.75V222.625C330.988 225.208 341.988 226.5 353.155 226.5C375.488 226.5 386.655 221.792 386.655 212.375C386.655 208.792 385.78 206.125 384.03 204.375C381.447 201.625 377.363 198.875 371.78 196.125L353.53 187.75C341.697 181.833 334.03 177.083 330.53 173.5C323.947 166.833 320.655 158.917 320.655 149.75C320.655 139.417 325.447 131 335.03 124.5C345.363 117.5 359.863 114 378.53 114C387.947 114 397.447 114.667 407.03 116V137.375C396.53 135.458 387.363 134.5 379.53 134.5C371.78 134.5 365.738 135 361.405 136C357.155 137 353.947 138.25 351.78 139.75C348.363 142.083 346.655 145.125 346.655 148.875C346.655 152.542 347.822 155.542 350.155 157.875C352.572 160.125 356.322 162.583 361.405 165.25L379.78 174.125C391.78 180.375 399.488 185.167 402.905 188.5C409.405 194.833 412.655 202.792 412.655 212.375C412.655 222.625 407.488 230.875 397.155 237.125C386.322 243.708 371.197 247 351.78 247ZM461.92 78.5C461.92 83.25 460.337 86.9167 457.17 89.5C454.087 92 450.212 93.25 445.545 93.25C440.878 93.25 437.003 92 433.92 89.5C430.92 86.9167 429.42 83.25 429.42 78.5C429.42 73.6667 430.92 70 433.92 67.5C437.003 65 440.878 63.75 445.545 63.75C450.212 63.75 454.087 65 457.17 67.5C460.337 70 461.92 73.6667 461.92 78.5ZM432.67 116H457.67V245H432.67V116ZM555.06 294.25C547.81 296.083 538.477 297 527.06 297C515.727 297 507.435 296.167 502.185 294.5V272.25C508.768 275.083 516.81 276.5 526.31 276.5C535.893 276.583 542.935 275.958 547.435 274.625C551.935 273.292 555.477 271.125 558.06 268.125C562.727 262.708 565.06 252.917 565.06 238.75V232.125C558.727 238.458 550.393 242.875 540.06 245.375C535.893 246.375 531.727 246.875 527.56 246.875C523.393 246.875 519.31 246.417 515.31 245.5C511.393 244.583 507.477 243.125 503.56 241.125C499.643 239.042 495.893 236.375 492.31 233.125C488.727 229.792 485.56 225.667 482.81 220.75C476.643 210.083 473.56 196.958 473.56 181.375C473.393 166.958 477.56 154.292 486.06 143.375C493.393 133.875 503.477 126.5 516.31 121.25C527.977 116.417 540.602 114 554.185 114C567.768 114 579.727 114.667 590.06 116V238.75C590.06 269.917 578.393 288.417 555.06 294.25ZM565.06 134.25C559.727 133.583 554.477 133.25 549.31 133.25C544.143 133.25 538.352 134.208 531.935 136.125C525.518 138.042 519.893 140.958 515.06 144.875C504.477 153.458 499.185 165.625 499.185 181.375C499.185 198.458 503.31 210.917 511.56 218.75C517.727 224.667 525.268 227.625 534.185 227.625C544.935 227.625 553.977 223.833 561.31 216.25C563.06 214.333 564.31 212.625 565.06 211.125V134.25ZM673.7 135.5C661.283 135.5 650.242 139.708 640.575 148.125V245H615.575V116H638.7L640.45 130C654.033 119.333 668.075 114 682.575 114C697.908 114 709.158 118.583 716.325 127.75C723.825 137.417 727.575 153 727.575 174.5V245H702.575V174.5C702.575 153.833 696.992 141.5 685.825 137.5C682.242 136.167 678.2 135.5 673.7 135.5ZM909.855 230.625C902.688 236.208 894.563 240.333 885.48 243C876.48 245.583 866.73 246.875 856.23 246.875C845.813 246.875 834.147 246.25 821.23 245V59H846.23V128.875C851.73 122.625 859.355 118.167 869.105 115.5C872.772 114.5 876.522 114 880.355 114C884.272 114 888.23 114.417 892.23 115.25C896.23 116 900.188 117.333 904.105 119.25C908.105 121.167 911.897 123.708 915.48 126.875C919.063 130.042 922.23 134 924.98 138.75C931.063 148.917 934.105 161 934.105 175C934.105 188.917 931.855 200.25 927.355 209C922.938 217.75 917.105 224.958 909.855 230.625ZM846.355 226.625C848.688 227.292 853.272 227.625 860.105 227.625C866.938 227.625 873.355 226.667 879.355 224.75C885.355 222.833 890.48 219.833 894.73 215.75C903.647 207.167 908.105 194.375 908.105 177.375C908.105 156.625 902.063 143.042 889.98 136.625C885.647 134.375 881.23 133.25 876.73 133.25C872.23 133.25 868.313 133.833 864.98 135C861.647 136.167 858.73 137.583 856.23 139.25C851.48 142.5 848.188 146 846.355 149.75V226.625ZM947.87 277C950.12 277.667 953.162 278 956.995 278C960.912 278 964.912 277.208 968.995 275.625C973.078 274.125 976.62 272 979.62 269.25C984.62 264.75 989.162 257.667 993.245 248L940.245 116H966.87L1004.12 218.75L1037.49 116H1063.87L1010.87 260.875C1006.87 271.708 1001.33 280 994.245 285.75C984.912 293.25 972.453 297 956.87 297C955.453 297 953.995 296.917 952.495 296.75L947.87 296.25V277Z" fill="white" style="mix-blend-mode:exclusion"/>
<path d="M1229.38 232.875C1223.46 237.042 1215.88 240.333 1206.62 242.75C1197.38 245.083 1186.04 246.25 1172.62 246.25C1159.29 246.25 1145.83 245.458 1132.25 243.875V219.625C1144.42 222.375 1156.67 223.75 1169 223.75C1181.33 223.75 1190.58 223.083 1196.75 221.75C1202.92 220.333 1207.88 218.5 1211.62 216.25C1218.54 212.083 1222 206.667 1222 200C1222 194.833 1220.67 190.833 1218 188C1213.75 183.583 1207.62 179.542 1199.62 175.875L1167.62 161.25C1156.62 156.083 1148.83 151.292 1144.25 146.875C1134.42 137.375 1129.5 126.375 1129.5 113.875C1129.5 101.042 1135.08 90.6667 1146.25 82.75C1158.5 74.0833 1175.92 69.75 1198.5 69.75C1213.08 69.75 1226.42 70.3333 1238.5 71.5V95.375C1228.25 93.0417 1216.79 91.875 1204.12 91.875C1191.54 91.875 1182.38 92.5417 1176.62 93.875C1170.96 95.125 1166.5 96.75 1163.25 98.75C1157.33 102.417 1154.38 107.25 1154.38 113.25C1154.38 119.083 1156.25 123.917 1160 127.75C1163.33 131 1169.42 134.75 1178.25 139L1211.12 154.625C1222.04 159.792 1229.67 164.667 1234 169.25C1238.42 173.833 1241.67 178.458 1243.75 183.125C1245.83 187.708 1246.88 193.25 1246.88 199.75C1246.88 206.167 1245.46 212.25 1242.62 218C1239.79 223.667 1235.38 228.625 1229.38 232.875ZM1310.89 225.25C1313.64 226.25 1317.81 226.75 1323.39 226.75C1328.97 226.75 1333.64 226.083 1337.39 224.75V244.75C1335.64 245.167 1333.1 245.417 1329.76 245.5L1321.89 245.75C1320.14 245.75 1318.81 245.75 1317.89 245.75C1301.81 245.75 1289.93 240.5 1282.26 230C1276.1 221.5 1273.01 210.25 1273.01 196.25V135.125H1254.51V123.375L1273.01 116L1279.01 84H1298.01V116H1338.01V135.125H1298.01V196.125C1298.01 212.458 1302.31 222.167 1310.89 225.25ZM1440.03 213.375V116H1465.03V245H1442.53L1440.28 231.375C1427.95 241.792 1414.32 247 1399.4 247C1383.57 247 1372.36 242.625 1365.78 233.875C1358.95 224.958 1355.53 209.583 1355.53 187.75V116H1380.53V186.5C1380.53 201.917 1382.74 212.417 1387.15 218C1391.07 223 1398.53 225.5 1409.53 225.5C1420.61 225.5 1430.78 221.458 1440.03 213.375ZM1582.67 244.625C1577.67 246.208 1569 247 1556.67 247C1544.34 247 1533.84 245.5 1525.17 242.5C1516.59 239.5 1509.25 235.083 1503.17 229.25C1490.59 217.167 1484.3 200.417 1484.3 179C1484.3 158.25 1491.84 141.917 1506.92 130C1520.42 119.333 1537 114 1556.67 114C1568.84 114 1577.17 114.417 1581.67 115.25V137.5C1574.67 135.25 1566.67 134.125 1557.67 134.125C1548.75 134.125 1541.34 135.375 1535.42 137.875C1529.5 140.292 1524.67 143.583 1520.92 147.75C1513.84 155.667 1510.3 166.083 1510.3 179C1510.3 200.833 1518.17 215.375 1533.92 222.625C1539.5 225.208 1544.96 226.5 1550.3 226.5C1555.63 226.5 1559.71 226.375 1562.55 226.125C1565.46 225.875 1568.21 225.542 1570.8 225.125C1576.3 224.208 1580.25 223.25 1582.67 222.25V244.625ZM1604.31 59.125H1629.31V173.75L1681.56 116H1711.31L1655.68 174.5L1714.18 245H1683.68L1629.31 179.25V245H1604.31V59.125ZM1714.95 71.125H1757.2C1785.7 71.125 1808.28 78.1667 1824.95 92.25C1842.95 107.333 1851.95 129.333 1851.95 158.25C1851.95 187.167 1843.2 209.125 1825.7 224.125C1809.37 238.042 1786.95 245 1758.45 245H1714.95V71.125ZM1826.33 158.375C1826.33 113.625 1802.74 91.25 1755.58 91.25H1739.95V225H1756.95C1792.95 225 1814.87 212 1822.7 186C1825.12 177.75 1826.33 168.542 1826.33 158.375ZM1954.59 213.375V116H1979.59V245H1957.09L1954.84 231.375C1942.51 241.792 1928.88 247 1913.97 247C1898.13 247 1886.92 242.625 1880.34 233.875C1873.51 224.958 1870.09 209.583 1870.09 187.75V116H1895.09V186.5C1895.09 201.917 1897.3 212.417 1901.72 218C1905.63 223 1913.09 225.5 1924.09 225.5C1935.17 225.5 1945.34 221.458 1954.59 213.375ZM2097.23 244.625C2092.23 246.208 2083.56 247 2071.23 247C2058.9 247 2048.4 245.5 2039.73 242.5C2031.15 239.5 2023.81 235.083 2017.73 229.25C2005.15 217.167 1998.85 200.417 1998.85 179C1998.85 158.25 2006.4 141.917 2021.48 130C2034.98 119.333 2051.56 114 2071.23 114C2083.4 114 2091.73 114.417 2096.23 115.25V137.5C2089.23 135.25 2081.23 134.125 2072.23 134.125C2063.31 134.125 2055.9 135.375 2049.98 137.875C2044.06 140.292 2039.23 143.583 2035.48 147.75C2028.4 155.667 2024.85 166.083 2024.85 179C2024.85 200.833 2032.73 215.375 2048.48 222.625C2054.06 225.208 2059.52 226.5 2064.85 226.5C2070.19 226.5 2074.27 226.375 2077.1 226.125C2080.02 225.875 2082.77 225.542 2085.35 225.125C2090.85 224.208 2094.81 223.25 2097.23 222.25V244.625ZM2118.87 59.125H2143.87V173.75L2196.12 116H2225.87L2170.24 174.5L2228.74 245H2198.24L2143.87 179.25V245H2118.87V59.125Z" fill="url(#paint0_linear_1_2)" style="mix-blend-mode:exclusion"/>
<defs>
<linearGradient id="paint0_linear_1_2" x1="1111" y1="-10" x2="2226" y2="310" gradientUnits="userSpaceOnUse">
<stop stop-color="#3333CC"/>
<stop offset="1" stop-color="#7085B2"/>
</linearGradient>
</defs>
</svg>
